<?xml version="1.0" standalone="no"?>
<!DOCTYPE svg PUBLIC "-//W3C//DTD SVG 20010904//EN"
 "http://www.w3.org/TR/2001/REC-SVG-20010904/DTD/svg10.dtd">
<svg version="1.0" xmlns="http://www.w3.org/2000/svg"
 width="736.000000pt" height="1308.000000pt" viewBox="0 0 736.000000 1308.000000"
 preserveAspectRatio="xMidYMid meet">

<g transform="translate(0.000000,1308.000000) scale(0.100000,-0.100000)"
fill="#000000" stroke="none">
<path d="M0 6540 l0 -6540 3680 0 3680 0 0 6540 0 6540 -3680 0 -3680 0 0
-6540z m5329 3264 c-91 -191 -329 -625 -406 -739 -31 -47 -33 -48 -30 -20 2
17 9 41 16 54 7 13 13 39 14 58 1 21 5 32 13 29 7 -3 10 2 7 12 -2 10 31 70
77 140 95 145 238 376 301 483 24 42 45 76 47 74 2 -2 -16 -43 -39 -91z m-408
-300 c-22 -77 -64 -231 -95 -344 -30 -113 -73 -255 -94 -317 -96 -267 -251
-502 -458 -692 -62 -57 -69 -61 -72 -41 -2 13 2 26 8 30 8 5 11 21 8 39 -3 22
-1 31 10 31 9 0 12 6 8 16 -3 8 -2 13 3 10 17 -11 22 28 6 40 -15 11 -14 13 6
16 12 2 24 9 27 17 3 8 0 11 -7 7 -6 -4 -11 -2 -11 3 0 6 5 11 10 11 6 0 10 8
10 18 0 9 9 31 20 47 43 65 17 41 -47 -42 -108 -142 -290 -362 -404 -489 -34
-38 -209 -220 -389 -404 -417 -428 -519 -538 -656 -710 -250 -313 -358 -525
-544 -1065 -126 -364 -192 -505 -289 -609 -85 -91 -167 -126 -295 -126 -252 1
-429 130 -475 348 -38 183 19 455 141 668 153 269 446 645 678 871 334 325
601 510 1135 786 374 193 621 336 726 421 14 12 43 35 65 51 139 107 393 385
511 560 42 63 144 261 208 405 20 47 55 122 76 168 22 45 39 85 39 88 0 3 11
29 24 57 14 29 30 65 35 80 7 17 15 25 23 21 6 -4 8 -3 5 3 -4 6 0 26 8 44 13
32 14 33 16 9 1 -14 5 -5 8 20 3 26 11 44 18 43 6 -1 16 12 22 29 6 17 14 29
17 26 3 -3 -13 -68 -35 -144z m722 -1079 c398 -103 456 -499 161 -1102 -85
-175 -135 -259 -276 -457 -128 -180 -174 -235 -311 -375 -242 -248 -417 -380
-1087 -826 -267 -178 -545 -365 -618 -416 -250 -175 -651 -481 -774 -590 -38
-33 -68 -58 -68 -55 0 4 37 47 83 98 45 50 102 114 127 143 25 28 144 163 265
300 121 136 240 271 265 300 25 29 126 144 225 256 144 163 410 467 624 714
281 325 361 442 477 695 68 149 148 359 140 368 -3 3 -8 -2 -12 -11 -3 -9 -12
-13 -20 -10 -10 4 -12 0 -7 -13 5 -13 3 -16 -10 -11 -11 4 -18 -1 -22 -14 -4
-10 -12 -19 -19 -19 -20 0 -202 -192 -209 -221 -4 -14 -21 -41 -40 -60 -18
-18 -46 -52 -62 -74 -16 -22 -35 -46 -42 -53 -7 -7 -13 -20 -13 -28 0 -8 -4
-14 -9 -14 -5 0 -12 -8 -15 -18 -4 -10 -16 -29 -27 -41 -18 -19 -19 -25 -8
-32 11 -6 10 -9 -4 -15 -9 -3 -14 -11 -10 -17 4 -6 0 -8 -11 -4 -9 4 -15 3
-12 -2 3 -4 -36 -48 -87 -97 -144 -140 -255 -267 -493 -564 -122 -151 -261
-320 -309 -375 -101 -115 -245 -267 -245 -259 0 4 23 36 52 73 192 244 384
548 583 921 120 226 183 332 252 425 59 79 211 232 308 310 229 184 407 339
497 433 94 98 109 119 123 169 49 170 147 353 240 449 115 118 248 158 398
119z m-1458 -354 c-6 -5 -25 10 -25 20 0 5 6 4 14 -3 8 -7 12 -15 11 -17z
m-1557 -238 c-200 -194 -393 -464 -556 -776 -65 -124 -71 -130 -47 -51 19 64
19 78 -1 70 -14 -6 -15 -4 -4 9 17 21 18 74 2 87 -7 6 -10 19 -7 29 16 49 -43
-7 -115 -109 -23 -34 -49 -62 -56 -62 -8 0 -14 -8 -15 -17 0 -11 -3 -13 -6 -5
-8 20 -20 14 -32 -18 -5 -17 -16 -29 -22 -28 -7 2 -15 -6 -17 -17 -2 -11 -14
-28 -26 -37 -46 -38 -56 -52 -50 -71 4 -13 0 -20 -15 -24 -12 -3 -25 -19 -31
-39 -7 -19 -16 -34 -21 -34 -5 0 -9 2 -9 4 0 9 106 218 138 271 112 188 317
412 540 594 125 102 405 301 423 301 4 0 -29 -35 -73 -77z m692 -720 c-129
-397 -320 -739 -535 -957 -52 -53 -63 -58 -38 -16 9 17 21 30 26 30 10 0 -1
61 -14 75 -14 15 -11 30 16 69 14 20 25 41 25 46 0 6 9 19 21 31 23 23 18 39
-6 19 -8 -7 -15 -8 -15 -3 0 12 -38 14 -45 2 -8 -12 -28 -12 -23 0 2 7 113
132 163 185 135 143 349 437 424 584 35 69 36 42 1 -65z m-1739 -436 c-10 -9
-11 -8 -5 6 3 10 9 15 12 12 3 -3 0 -11 -7 -18z m3904 -316 c-65 -126 -338
-420 -544 -586 -155 -126 -463 -326 -621 -405 -59 -29 -43 -15 55 50 281 186
569 495 782 840 37 60 74 110 82 110 11 0 11 -4 -2 -23 -20 -31 -12 -117 12
-117 26 -1 201 93 194 103 -4 6 -1 7 7 2 10 -6 12 -4 6 11 -4 10 -4 15 0 11 4
-4 13 2 21 13 21 30 26 24 8 -9z m-2715 -171 c0 -5 -5 -10 -11 -10 -5 0 -7 5
-4 10 3 6 8 10 11 10 2 0 4 -4 4 -10z m505 -1377 c-11 -57 -12 -92 -3 -87 4 3
8 -1 8 -9 0 -10 13 -13 45 -13 38 1 45 4 50 24 5 20 8 22 20 12 12 -10 15 -9
15 9 0 12 7 24 15 27 8 3 17 15 21 26 3 11 8 17 11 14 3 -2 -30 -71 -73 -153
-175 -331 -310 -632 -443 -993 -28 -74 -50 -127 -51 -117 0 29 104 450 156
626 66 227 220 670 233 671 2 0 0 -17 -4 -37z m-804 -543 c-4 -3 -13 -15 -20
-27 -9 -18 -9 -23 1 -23 11 0 11 -2 0 -8 -15 -10 -30 -172 -16 -172 9 0 59 38
137 102 20 18 37 37 37 44 0 6 7 14 15 18 8 3 15 12 15 21 0 8 5 15 10 15 6 0
10 -1 10 -2 0 -2 -28 -59 -61 -128 -147 -300 -321 -739 -479 -1210 -18 -52
-34 -97 -37 -100 -15 -14 45 416 87 624 54 269 100 431 182 640 58 148 108
242 119 224 5 -7 4 -15 0 -18z"/>
</g>
</svg>
